<svg xmlns="http://www.w3.org/2000/svg" viewBox="0 0 500 470">
<polygon points="250,63.0 438.0,215 250,367.0 62.0,215" fill="none" stroke="#C9A84C" stroke-width="0.85"/>
<polygon points="250,72.5 426.2,215 250,357.5 73.8,215" fill="none" stroke="#C9A84C" stroke-width="0.85"/>
<polygon points="250,82.0 414.5,215 250,348.0 85.5,215" fill="none" stroke="#C9A84C" stroke-width="0.85"/>
<polygon points="250,91.5 402.8,215 250,338.5 97.2,215" fill="none" stroke="#C9A84C" stroke-width="0.85"/>
<polygon points="250,101.0 391.0,215 250,329.0 109.0,215" fill="none" stroke="#C9A84C" stroke-width="0.85"/>
<polygon points="250,110.5 379.2,215 250,319.5 120.8,215" fill="none" stroke="#C9A84C" stroke-width="0.85"/>
<polygon points="250,120.0 367.5,215 250,310.0 132.5,215" fill="none" stroke="#C9A84C" stroke-width="0.85"/>
<polygon points="250,129.5 355.8,215 250,300.5 144.2,215" fill="none" stroke="#C9A84C" stroke-width="0.85"/>
<polygon points="250,139.0 344.0,215 250,291.0 156.0,215" fill="none" stroke="#C9A84C" stroke-width="0.85"/>
<polygon points="250,148.5 332.2,215 250,281.5 167.8,215" fill="none" stroke="#C9A84C" stroke-width="0.85"/>
<polygon points="250,158.0 320.5,215 250,272.0 179.5,215" fill="none" stroke="#C9A84C" stroke-width="0.85"/>
<polygon points="250,167.5 308.8,215 250,262.5 191.2,215" fill="none" stroke="#C9A84C" stroke-width="0.85"/>
<polygon points="250,177.0 297.0,215 250,253.0 203.0,215" fill="none" stroke="#C9A84C" stroke-width="0.85"/>
<polygon points="250,186.5 285.2,215 250,243.5 214.8,215" fill="none" stroke="#C9A84C" stroke-width="0.85"/>
<polygon points="250,196.0 273.5,215 250,234.0 226.5,215" fill="none" stroke="#C9A84C" stroke-width="0.85"/>
<polygon points="250,205.5 261.8,215 250,224.5 238.2,215" fill="none" stroke="#C9A84C" stroke-width="0.85"/>
<line x1="118" y1="215" x2="108.4" y2="250.8" stroke="#C9A84C" stroke-width="0.85"/>
<line x1="118" y1="215" x2="105.5" y2="248.4" stroke="#C9A84C" stroke-width="0.85"/>
<line x1="118" y1="215" x2="102.7" y2="246.2" stroke="#C9A84C" stroke-width="0.85"/>
<line x1="118" y1="215" x2="100.1" y2="244.1" stroke="#C9A84C" stroke-width="0.85"/>
<line x1="118" y1="215" x2="97.5" y2="242.0" stroke="#C9A84C" stroke-width="0.85"/>
<line x1="118" y1="215" x2="94.9" y2="239.9" stroke="#C9A84C" stroke-width="0.85"/>
<line x1="118" y1="215" x2="92.3" y2="237.8" stroke="#C9A84C" stroke-width="0.85"/>
<line x1="118" y1="215" x2="89.6" y2="235.7" stroke="#C9A84C" stroke-width="0.85"/>
<line x1="118" y1="215" x2="86.8" y2="233.4" stroke="#C9A84C" stroke-width="0.85"/>
<line x1="118" y1="215" x2="83.8" y2="231.0" stroke="#C9A84C" stroke-width="0.85"/>
<line x1="118" y1="215" x2="80.4" y2="228.3" stroke="#C9A84C" stroke-width="0.85"/>
<line x1="118" y1="215" x2="76.7" y2="225.2" stroke="#C9A84C" stroke-width="0.85"/>
<line x1="118" y1="215" x2="72.3" y2="221.7" stroke="#C9A84C" stroke-width="0.85"/>
<line x1="118" y1="215" x2="67.1" y2="217.5" stroke="#C9A84C" stroke-width="0.85"/>
<line x1="118" y1="215" x2="67.1" y2="212.5" stroke="#C9A84C" stroke-width="0.85"/>
<line x1="118" y1="215" x2="72.3" y2="208.3" stroke="#C9A84C" stroke-width="0.85"/>
<line x1="118" y1="215" x2="76.7" y2="204.8" stroke="#C9A84C" stroke-width="0.85"/>
<line x1="118" y1="215" x2="80.4" y2="201.7" stroke="#C9A84C" stroke-width="0.85"/>
<line x1="118" y1="215" x2="83.8" y2="199.0" stroke="#C9A84C" stroke-width="0.85"/>
<line x1="118" y1="215" x2="86.8" y2="196.6" stroke="#C9A84C" stroke-width="0.85"/>
<line x1="118" y1="215" x2="89.6" y2="194.3" stroke="#C9A84C" stroke-width="0.85"/>
<line x1="118" y1="215" x2="92.3" y2="192.2" stroke="#C9A84C" stroke-width="0.85"/>
<line x1="118" y1="215" x2="94.9" y2="190.1" stroke="#C9A84C" stroke-width="0.85"/>
<line x1="118" y1="215" x2="97.5" y2="188.0" stroke="#C9A84C" stroke-width="0.85"/>
<line x1="118" y1="215" x2="100.1" y2="185.9" stroke="#C9A84C" stroke-width="0.85"/>
<line x1="118" y1="215" x2="102.7" y2="183.8" stroke="#C9A84C" stroke-width="0.85"/>
<line x1="118" y1="215" x2="105.5" y2="181.6" stroke="#C9A84C" stroke-width="0.85"/>
<line x1="118" y1="215" x2="108.4" y2="179.2" stroke="#C9A84C" stroke-width="0.85"/>
<line x1="382" y1="215" x2="391.6" y2="179.2" stroke="#C9A84C" stroke-width="0.85"/>
<line x1="382" y1="215" x2="394.5" y2="181.6" stroke="#C9A84C" stroke-width="0.85"/>
<line x1="382" y1="215" x2="397.3" y2="183.8" stroke="#C9A84C" stroke-width="0.85"/>
<line x1="382" y1="215" x2="399.9" y2="185.9" stroke="#C9A84C" stroke-width="0.85"/>
<line x1="382" y1="215" x2="402.5" y2="188.0" stroke="#C9A84C" stroke-width="0.85"/>
<line x1="382" y1="215" x2="405.1" y2="190.1" stroke="#C9A84C" stroke-width="0.85"/>
<line x1="382" y1="215" x2="407.7" y2="192.2" stroke="#C9A84C" stroke-width="0.85"/>
<line x1="382" y1="215" x2="410.4" y2="194.3" stroke="#C9A84C" stroke-width="0.85"/>
<line x1="382" y1="215" x2="413.2" y2="196.6" stroke="#C9A84C" stroke-width="0.85"/>
<line x1="382" y1="215" x2="416.2" y2="199.0" stroke="#C9A84C" stroke-width="0.85"/>
<line x1="382" y1="215" x2="419.6" y2="201.7" stroke="#C9A84C" stroke-width="0.85"/>
<line x1="382" y1="215" x2="423.3" y2="204.8" stroke="#C9A84C" stroke-width="0.85"/>
<line x1="382" y1="215" x2="427.7" y2="208.3" stroke="#C9A84C" stroke-width="0.85"/>
<line x1="382" y1="215" x2="432.9" y2="212.5" stroke="#C9A84C" stroke-width="0.85"/>
<line x1="382" y1="215" x2="432.9" y2="217.5" stroke="#C9A84C" stroke-width="0.85"/>
<line x1="382" y1="215" x2="427.7" y2="221.7" stroke="#C9A84C" stroke-width="0.85"/>
<line x1="382" y1="215" x2="423.3" y2="225.2" stroke="#C9A84C" stroke-width="0.85"/>
<line x1="382" y1="215" x2="419.6" y2="228.3" stroke="#C9A84C" stroke-width="0.85"/>
<line x1="382" y1="215" x2="416.2" y2="231.0" stroke="#C9A84C" stroke-width="0.85"/>
<line x1="382" y1="215" x2="413.2" y2="233.4" stroke="#C9A84C" stroke-width="0.85"/>
<line x1="382" y1="215" x2="410.4" y2="235.7" stroke="#C9A84C" stroke-width="0.85"/>
<line x1="382" y1="215" x2="407.7" y2="237.8" stroke="#C9A84C" stroke-width="0.85"/>
<line x1="382" y1="215" x2="405.1" y2="239.9" stroke="#C9A84C" stroke-width="0.85"/>
<line x1="382" y1="215" x2="402.5" y2="242.0" stroke="#C9A84C" stroke-width="0.85"/>
<line x1="382" y1="215" x2="399.9" y2="244.1" stroke="#C9A84C" stroke-width="0.85"/>
<line x1="382" y1="215" x2="397.3" y2="246.2" stroke="#C9A84C" stroke-width="0.85"/>
<line x1="382" y1="215" x2="394.5" y2="248.4" stroke="#C9A84C" stroke-width="0.85"/>
<line x1="382" y1="215" x2="391.6" y2="250.8" stroke="#C9A84C" stroke-width="0.85"/>
<path d="M 118.0,215 Q 250,149.0 382.0,215 Q 250,281.0 118.0,215 Z" fill="none" stroke="#C9A84C" stroke-width="0.85"/>
<path d="M 128.2,215 Q 250,154.1 371.8,215 Q 250,275.9 128.2,215 Z" fill="none" stroke="#C9A84C" stroke-width="0.85"/>
<path d="M 138.3,215 Q 250,159.2 361.7,215 Q 250,270.8 138.3,215 Z" fill="none" stroke="#C9A84C" stroke-width="0.85"/>
<path d="M 148.5,215 Q 250,164.2 351.5,215 Q 250,265.8 148.5,215 Z" fill="none" stroke="#C9A84C" stroke-width="0.85"/>
<path d="M 158.6,215 Q 250,169.3 341.4,215 Q 250,260.7 158.6,215 Z" fill="none" stroke="#C9A84C" stroke-width="0.85"/>
<path d="M 168.8,215 Q 250,174.4 331.2,215 Q 250,255.6 168.8,215 Z" fill="none" stroke="#C9A84C" stroke-width="0.85"/>
<path d="M 178.9,215 Q 250,179.5 321.1,215 Q 250,250.5 178.9,215 Z" fill="none" stroke="#C9A84C" stroke-width="0.85"/>
<path d="M 189.1,215 Q 250,184.5 310.9,215 Q 250,245.5 189.1,215 Z" fill="none" stroke="#C9A84C" stroke-width="0.85"/>
<path d="M 199.2,215 Q 250,189.6 300.8,215 Q 250,240.4 199.2,215 Z" fill="none" stroke="#C9A84C" stroke-width="0.85"/>
<path d="M 209.4,215 Q 250,194.7 290.6,215 Q 250,235.3 209.4,215 Z" fill="none" stroke="#C9A84C" stroke-width="0.85"/>
<path d="M 219.5,215 Q 250,199.8 280.5,215 Q 250,230.2 219.5,215 Z" fill="none" stroke="#C9A84C" stroke-width="0.85"/>
<path d="M 229.7,215 Q 250,204.8 270.3,215 Q 250,225.2 229.7,215 Z" fill="none" stroke="#C9A84C" stroke-width="0.85"/>
<path d="M 239.8,215 Q 250,209.9 260.2,215 Q 250,220.1 239.8,215 Z" fill="none" stroke="#C9A84C" stroke-width="0.85"/>
<circle cx="250" cy="215" r="16" fill="none" stroke="#C9A84C" stroke-width="0.85"/>
<circle cx="250" cy="215" r="8"  fill="none" stroke="#C9A84C" stroke-width="0.85"/>
<circle cx="250" cy="215" r="2.5" fill="#C9A84C"/>
<text x="250" y="430" text-anchor="middle" fill="#C9A84C" font-size="30" font-family="'Helvetica Neue',Helvetica,Arial,sans-serif" font-weight="300" letter-spacing="16">VEFILM</text>
</svg>