<svg xmlns="http://www.w3.org/2000/svg" viewBox="0 0 400 400">
<polygon points="200,78.0 350.0,200 200,322.0 50.0,200" fill="none" stroke="#C9A84C" stroke-width="0.85"/>
<polygon points="200,86.1 340.0,200 200,313.9 60.0,200" fill="none" stroke="#C9A84C" stroke-width="0.85"/>
<polygon points="200,94.3 330.0,200 200,305.7 70.0,200" fill="none" stroke="#C9A84C" stroke-width="0.85"/>
<polygon points="200,102.4 320.0,200 200,297.6 80.0,200" fill="none" stroke="#C9A84C" stroke-width="0.85"/>
<polygon points="200,110.5 310.0,200 200,289.5 90.0,200" fill="none" stroke="#C9A84C" stroke-width="0.85"/>
<polygon points="200,118.7 300.0,200 200,281.3 100.0,200" fill="none" stroke="#C9A84C" stroke-width="0.85"/>
<polygon points="200,126.8 290.0,200 200,273.2 110.0,200" fill="none" stroke="#C9A84C" stroke-width="0.85"/>
<polygon points="200,134.9 280.0,200 200,265.1 120.0,200" fill="none" stroke="#C9A84C" stroke-width="0.85"/>
<polygon points="200,143.1 270.0,200 200,256.9 130.0,200" fill="none" stroke="#C9A84C" stroke-width="0.85"/>
<polygon points="200,151.2 260.0,200 200,248.8 140.0,200" fill="none" stroke="#C9A84C" stroke-width="0.85"/>
<polygon points="200,159.3 250.0,200 200,240.7 150.0,200" fill="none" stroke="#C9A84C" stroke-width="0.85"/>
<polygon points="200,167.5 240.0,200 200,232.5 160.0,200" fill="none" stroke="#C9A84C" stroke-width="0.85"/>
<polygon points="200,175.6 230.0,200 200,224.4 170.0,200" fill="none" stroke="#C9A84C" stroke-width="0.85"/>
<polygon points="200,183.7 220.0,200 200,216.3 180.0,200" fill="none" stroke="#C9A84C" stroke-width="0.85"/>
<polygon points="200,191.9 210.0,200 200,208.1 190.0,200" fill="none" stroke="#C9A84C" stroke-width="0.85"/>
<line x1="94" y1="200" x2="85.7" y2="227.3" stroke="#C9A84C" stroke-width="0.85"/>
<line x1="94" y1="200" x2="83.3" y2="225.4" stroke="#C9A84C" stroke-width="0.85"/>
<line x1="94" y1="200" x2="81.1" y2="223.6" stroke="#C9A84C" stroke-width="0.85"/>
<line x1="94" y1="200" x2="79.0" y2="221.9" stroke="#C9A84C" stroke-width="0.85"/>
<line x1="94" y1="200" x2="76.9" y2="220.2" stroke="#C9A84C" stroke-width="0.85"/>
<line x1="94" y1="200" x2="74.8" y2="218.5" stroke="#C9A84C" stroke-width="0.85"/>
<line x1="94" y1="200" x2="72.6" y2="216.7" stroke="#C9A84C" stroke-width="0.85"/>
<line x1="94" y1="200" x2="70.3" y2="214.9" stroke="#C9A84C" stroke-width="0.85"/>
<line x1="94" y1="200" x2="67.9" y2="212.9" stroke="#C9A84C" stroke-width="0.85"/>
<line x1="94" y1="200" x2="65.2" y2="210.7" stroke="#C9A84C" stroke-width="0.85"/>
<line x1="94" y1="200" x2="62.2" y2="208.3" stroke="#C9A84C" stroke-width="0.85"/>
<line x1="94" y1="200" x2="58.7" y2="205.4" stroke="#C9A84C" stroke-width="0.85"/>
<line x1="94" y1="200" x2="54.5" y2="202.0" stroke="#C9A84C" stroke-width="0.85"/>
<line x1="94" y1="200" x2="54.5" y2="198.0" stroke="#C9A84C" stroke-width="0.85"/>
<line x1="94" y1="200" x2="58.7" y2="194.6" stroke="#C9A84C" stroke-width="0.85"/>
<line x1="94" y1="200" x2="62.2" y2="191.7" stroke="#C9A84C" stroke-width="0.85"/>
<line x1="94" y1="200" x2="65.2" y2="189.3" stroke="#C9A84C" stroke-width="0.85"/>
<line x1="94" y1="200" x2="67.9" y2="187.1" stroke="#C9A84C" stroke-width="0.85"/>
<line x1="94" y1="200" x2="70.3" y2="185.1" stroke="#C9A84C" stroke-width="0.85"/>
<line x1="94" y1="200" x2="72.6" y2="183.3" stroke="#C9A84C" stroke-width="0.85"/>
<line x1="94" y1="200" x2="74.8" y2="181.5" stroke="#C9A84C" stroke-width="0.85"/>
<line x1="94" y1="200" x2="76.9" y2="179.8" stroke="#C9A84C" stroke-width="0.85"/>
<line x1="94" y1="200" x2="79.0" y2="178.1" stroke="#C9A84C" stroke-width="0.85"/>
<line x1="94" y1="200" x2="81.1" y2="176.4" stroke="#C9A84C" stroke-width="0.85"/>
<line x1="94" y1="200" x2="83.3" y2="174.6" stroke="#C9A84C" stroke-width="0.85"/>
<line x1="94" y1="200" x2="85.7" y2="172.7" stroke="#C9A84C" stroke-width="0.85"/>
<line x1="306" y1="200" x2="314.3" y2="172.7" stroke="#C9A84C" stroke-width="0.85"/>
<line x1="306" y1="200" x2="316.7" y2="174.6" stroke="#C9A84C" stroke-width="0.85"/>
<line x1="306" y1="200" x2="318.9" y2="176.4" stroke="#C9A84C" stroke-width="0.85"/>
<line x1="306" y1="200" x2="321.0" y2="178.1" stroke="#C9A84C" stroke-width="0.85"/>
<line x1="306" y1="200" x2="323.1" y2="179.8" stroke="#C9A84C" stroke-width="0.85"/>
<line x1="306" y1="200" x2="325.2" y2="181.5" stroke="#C9A84C" stroke-width="0.85"/>
<line x1="306" y1="200" x2="327.4" y2="183.3" stroke="#C9A84C" stroke-width="0.85"/>
<line x1="306" y1="200" x2="329.7" y2="185.1" stroke="#C9A84C" stroke-width="0.85"/>
<line x1="306" y1="200" x2="332.1" y2="187.1" stroke="#C9A84C" stroke-width="0.85"/>
<line x1="306" y1="200" x2="334.8" y2="189.3" stroke="#C9A84C" stroke-width="0.85"/>
<line x1="306" y1="200" x2="337.8" y2="191.7" stroke="#C9A84C" stroke-width="0.85"/>
<line x1="306" y1="200" x2="341.3" y2="194.6" stroke="#C9A84C" stroke-width="0.85"/>
<line x1="306" y1="200" x2="345.5" y2="198.0" stroke="#C9A84C" stroke-width="0.85"/>
<line x1="306" y1="200" x2="345.5" y2="202.0" stroke="#C9A84C" stroke-width="0.85"/>
<line x1="306" y1="200" x2="341.3" y2="205.4" stroke="#C9A84C" stroke-width="0.85"/>
<line x1="306" y1="200" x2="337.8" y2="208.3" stroke="#C9A84C" stroke-width="0.85"/>
<line x1="306" y1="200" x2="334.8" y2="210.7" stroke="#C9A84C" stroke-width="0.85"/>
<line x1="306" y1="200" x2="332.1" y2="212.9" stroke="#C9A84C" stroke-width="0.85"/>
<line x1="306" y1="200" x2="329.7" y2="214.9" stroke="#C9A84C" stroke-width="0.85"/>
<line x1="306" y1="200" x2="327.4" y2="216.7" stroke="#C9A84C" stroke-width="0.85"/>
<line x1="306" y1="200" x2="325.2" y2="218.5" stroke="#C9A84C" stroke-width="0.85"/>
<line x1="306" y1="200" x2="323.1" y2="220.2" stroke="#C9A84C" stroke-width="0.85"/>
<line x1="306" y1="200" x2="321.0" y2="221.9" stroke="#C9A84C" stroke-width="0.85"/>
<line x1="306" y1="200" x2="318.9" y2="223.6" stroke="#C9A84C" stroke-width="0.85"/>
<line x1="306" y1="200" x2="316.7" y2="225.4" stroke="#C9A84C" stroke-width="0.85"/>
<line x1="306" y1="200" x2="314.3" y2="227.3" stroke="#C9A84C" stroke-width="0.85"/>
<path d="M 94.0,200 Q 200,147.0 306.0,200 Q 200,253.0 94.0,200 Z" fill="none" stroke="#C9A84C" stroke-width="0.85"/>
<path d="M 102.8,200 Q 200,151.4 297.2,200 Q 200,248.6 102.8,200 Z" fill="none" stroke="#C9A84C" stroke-width="0.85"/>
<path d="M 111.7,200 Q 200,155.8 288.3,200 Q 200,244.2 111.7,200 Z" fill="none" stroke="#C9A84C" stroke-width="0.85"/>
<path d="M 120.5,200 Q 200,160.2 279.5,200 Q 200,239.8 120.5,200 Z" fill="none" stroke="#C9A84C" stroke-width="0.85"/>
<path d="M 129.3,200 Q 200,164.7 270.7,200 Q 200,235.3 129.3,200 Z" fill="none" stroke="#C9A84C" stroke-width="0.85"/>
<path d="M 138.2,200 Q 200,169.1 261.8,200 Q 200,230.9 138.2,200 Z" fill="none" stroke="#C9A84C" stroke-width="0.85"/>
<path d="M 147.0,200 Q 200,173.5 253.0,200 Q 200,226.5 147.0,200 Z" fill="none" stroke="#C9A84C" stroke-width="0.85"/>
<path d="M 155.8,200 Q 200,177.9 244.2,200 Q 200,222.1 155.8,200 Z" fill="none" stroke="#C9A84C" stroke-width="0.85"/>
<path d="M 164.7,200 Q 200,182.3 235.3,200 Q 200,217.7 164.7,200 Z" fill="none" stroke="#C9A84C" stroke-width="0.85"/>
<path d="M 173.5,200 Q 200,186.8 226.5,200 Q 200,213.2 173.5,200 Z" fill="none" stroke="#C9A84C" stroke-width="0.85"/>
<path d="M 182.3,200 Q 200,191.2 217.7,200 Q 200,208.8 182.3,200 Z" fill="none" stroke="#C9A84C" stroke-width="0.85"/>
<path d="M 191.2,200 Q 200,195.6 208.8,200 Q 200,204.4 191.2,200 Z" fill="none" stroke="#C9A84C" stroke-width="0.85"/>
<circle cx="200" cy="200" r="13" fill="none" stroke="#C9A84C" stroke-width="0.85"/>
<circle cx="200" cy="200" r="6.5" fill="none" stroke="#C9A84C" stroke-width="0.85"/>
<circle cx="200" cy="200" r="2" fill="#C9A84C"/>
</svg>